<svg xmlns="http://www.w3.org/2000/svg" width="1600" height="527" viewBox="0 0 1600 527">
    <g fill="none" fill-rule="evenodd">
        <path stroke="#1BC9A8" stroke-width="23" d="M264 235c50.728 0 92 41.228 92 91.906 0 20.65-6.853 39.732-18.408 55.094"/>
        <path stroke="#2449E2" stroke-width="23" d="M840 198c0 66.72-54.086 121-120.569 121-43.18 0-81.13-22.898-102.431-57.23"/>
        <path stroke="#7627F2" stroke-width="23" d="M840.06 199a89.598 89.598 0 0 1-.06-3.289C840 146.795 879.926 107 929 107c49.075 0 89 39.795 89 88.711"/>
        <path stroke="#9E53FA" stroke-width="23" d="M1017 194.952c.683 86.3 75.64 156.3 163.561 155.031 88.433-1.275 158.97-74.374 158.97-162.733v-36.37c0-43.564 35.352-78.88 78.957-78.88H1710"/>
        <path stroke="#D4D6DA" stroke-width="3" d="M1340 187v-36.291c0-43.47 35.378-78.709 79.019-78.709H1710"/>
        <path stroke="#1BC9A8" stroke-width="23" d="M337.653 382C327.063 395.8 320 413.284 320 431.946 320 477.192 357.01 514 402.5 514s82.5-36.808 82.5-82.054"/>
        <path stroke="#3BBDDB" stroke-width="23" d="M464.524 377C448.787 359.915 439 336.895 439 311.914 439 259.028 482.12 216 535.124 216c23.51 0 45.074 8.465 61.794 22.501A96.689 96.689 0 0 1 617 261.71"/>
        <path stroke="#D4D6DA" stroke-width="3" d="M1034.327 116.763C1060.867 64.119 1115.507 28 1178.605 28 1267.74 28 1340 100.082 1340 189s-72.26 161-161.395 161C1089.469 350 1017 279.706 1017 190.788"/>
        <g stroke="#1BC9A8" stroke-width="1.5">
            <path d="M409.107 421.946v27.243M396.74 445.784V418.54M396.642 452l13.688 4 15.642-4v-38l-15.642 4-13.688-4L381 418v38z"/>
        </g>
        <g stroke="#2449E2" stroke-width="1.5">
            <path d="M705.357 199.5l18.1 17.5 20.512-35M720.12 202.323L731.477 182M694 198.935L712.17 217"/>
        </g>
        <g stroke="#9E53FA" stroke-width="1.5">
            <path d="M1175.707 181.068c.169-3.966-3.047-7.068-6.805-7.068-3.76 0-7.021 3.13-6.807 7.068.044.792.756 4.712.756 4.712.59 3.405 2.71 6.285 6.05 6.285s5.42-2.837 6.05-6.285c0 0 .723-3.918.756-4.712zM1187.07 209H1153l.577-6.407c.316-2.438 2.831-4.111 5.43-4.601l11.03-1.411 11.144 1.445c2.887.496 5.321 2.043 5.509 4.86l.38 6.114zM1195.014 184.946c.142-2.975-2.54-5.3-5.672-5.3-3.132 0-5.852 2.345-5.67 5.3.034.595.629 3.535.629 3.535.49 2.553 2.257 4.713 5.04 4.713 2.786 0 4.517-2.127 5.043-4.713 0 0 .601-2.94.63-3.535zM1189.34 197.71l8.976 1.116c2.177.405 4.17 1.717 4.346 4.113l.307 6.061h-10.447"/>
        </g>
        <path stroke="#1BC9A8" stroke-width="23" d="M464.987 377C478.047 391.578 486 410.837 486 431.922 486 477.306 449.294 515 404 515"/>
        <path stroke="#D4D6DA" stroke-width="3" d="M840 195.5c0-48.877 39.234-88.5 88.25-88.5s88.75 39.623 88.75 88.5-39.734 88.5-88.75 88.5c-24.508 0-46.696-9.907-62.756-25.922"/>
        <g stroke="#7627F2" stroke-width="1.5">
            <path d="M918.047 200.375V215l7.916-7.075M933.905 215l18.068-36L909 191zM950.842 179l-32.795 21.375"/>
        </g>
        <g stroke="#3BBDDB" stroke-width="1.5">
            <path d="M553.608 314.625h-38.123v-19.688c0-2.175 1.796-3.937 4.014-3.937h30.096c2.217 0 4.013 1.762 4.013 3.937v19.688zM514.997 314.672L511 322.89V327h45.971v-4.109l-3.998-8.266M527.819 323.625h12.334"/>
        </g>
        <path fill="#7627F2" d="M1414.753 19.825c0-2.88 2.347-5.218 5.241-5.218 2.906 0 5.253 2.338 5.253 5.218s-2.347 5.218-5.253 5.218c-2.894 0-5.24-2.338-5.24-5.218zM1434.068 5.8c-7.769-7.733-20.367-7.733-28.135 0l-.107.104c-7.768 7.733-7.768 20.266 0 27.998L1419.994 48l14.179-14.098c7.77-7.732 7.77-20.265 0-27.998l-.105-.104zM203.255 186.478v2.644c-.12 0-.239-.038-.396-.038l-4.127-.117-4.405-3.5a.633.633 0 0 0-.278-.156l-4.64-1.477-3.77 12.678-2.025 8.4-4.284 4.939a1.322 1.322 0 0 0 .119 1.865c.595.545 1.547.507 2.142-.077l4.405-4.511c.198-.194.356-.428.436-.7l2.34-6.805 3.452 4.666.16 7.116c.04.895.793 1.595 1.706 1.595.832 0 1.467-.622 1.507-1.44l.239-7.894a2.7 2.7 0 0 0-.437-1.477l-3.73-5.367 1.746-7.7 3.492 2.566c.396.273.833.43 1.309.43l4.92-.118h.119v20.144c0 .467.397.856.873.856s.872-.39.872-.856V186.44c-.04-.466-.396-.817-.872-.817a.873.873 0 0 0-.873.856zm-14.76-4.2c.12-.389-.119-.817-.555-.933l-4.523-1.206a.772.772 0 0 0-.953.545l-3.253 11.784c-.12.388.119.816.555.932l4.523 1.205a.77.77 0 0 0 .953-.544l3.253-11.782zm4.523 1.401c-1.587 0-2.895-1.285-2.895-2.84 0-1.554 1.23-2.839 2.855-2.839 1.628 0 2.937 1.285 2.937 2.84 0 1.593-1.309 2.84-2.897 2.84zM239.12 183.205v2.87c-.129 0-.257-.041-.427-.041l-4.444-.128-4.742-3.8a.696.696 0 0 0-.3-.169l-4.999-1.604-4.06 13.764-2.178 9.12-4.616 5.362a1.445 1.445 0 0 0 .13 2.027c.64.591 1.666.55 2.306-.084l4.743-4.898c.214-.211.386-.465.471-.76l2.52-7.388 3.717 5.065.171 7.728c.043.97.855 1.731 1.838 1.731.897 0 1.58-.677 1.624-1.562l.256-8.571c0-.592-.17-1.14-.47-1.604l-4.016-5.827 1.88-8.36 3.76 2.787c.427.294.897.463 1.41.463l5.297-.126h.129v21.87c0 .508.428.93.94.93s.94-.422.94-.93v-27.908c-.042-.507-.428-.886-.94-.886a.943.943 0 0 0-.94.929zm-15.894-4.561c.127-.422-.13-.886-.599-1.013l-4.87-1.309a.83.83 0 0 0-1.026.59l-3.504 12.794c-.128.423.127.887.599 1.013l4.87 1.31a.83.83 0 0 0 1.025-.592l3.505-12.793zm4.871 1.521c-1.71 0-3.12-1.394-3.12-3.083 0-1.689 1.325-3.082 3.077-3.082s3.162 1.393 3.162 3.082c0 1.732-1.41 3.083-3.119 3.083zM272.456 188.751v2.418c-.106 0-.21-.036-.352-.036l-3.65-.106-3.895-3.201a.584.584 0 0 0-.246-.142l-4.106-1.35-3.335 11.59-1.79 7.68-3.79 4.517a1.239 1.239 0 0 0 .105 1.706c.527.498 1.369.463 1.895-.07l3.896-4.126a1.5 1.5 0 0 0 .387-.64l2.07-6.222 3.054 4.266.14 6.508a1.515 1.515 0 0 0 1.509 1.457c.737 0 1.299-.57 1.333-1.316l.211-7.217c0-.498-.14-.96-.386-1.351l-3.3-4.907 1.545-7.04 3.09 2.347c.35.248.736.39 1.157.39l4.352-.106h.106v18.418c0 .427.35.782.772.782a.784.784 0 0 0 .772-.782v-23.503c-.036-.426-.351-.746-.772-.746a.784.784 0 0 0-.772.782zm-13.923-1.006a.56.56 0 0 0-.398-.692l-3.248-.895a.552.552 0 0 0-.683.405l-2.335 8.744a.558.558 0 0 0 .397.691l3.248.896a.551.551 0 0 0 .683-.405l2.336-8.744zm2.361-4.697c-.903.329-2.04 1.085-3.118 2.136-.95.928-2.801.542-4.132-.86.665.702 2.747-.233 4.646-2.087.69-.673 1.854-.654 2.95-.058a2.484 2.484 0 0 1 2.126-1.179 2.6 2.6 0 0 1 2.596 2.596 2.57 2.57 0 0 1-2.56 2.594c-1.405 0-2.563-1.173-2.563-2.594 0-.188.019-.371.055-.548z"/>
        <path stroke="#1BC9A8" stroke-width="23" d="M-89 235h354"/>
        <path stroke="#D4D6DA" stroke-width="3" d="M337.313 383C350.09 367.306 356 347.772 356 327.435c0-50.5-41.008-91.435-91.596-91.435H-89M395 360l-11-8.058L392.1 341M541.855 417L532 407.431 542 398M609 190.958L599.021 200 590 190M864.185 270L864 256.183l14-.183M1047 115.761L1033.39 119l-3.39-13"/>
        <path stroke="#D4D6DA" stroke-width="3" d="M386.474 351.667A82.361 82.361 0 0 1 403 350C448.287 350 485 386.713 485 432c0 45.288-36.713 82-82 82s-82-36.712-82-82c0-18.251 6.059-35.495 16.142-49.119"/>
        <path stroke="#D4D6DA" stroke-width="3" d="M466.404 379.586C449.032 362.213 438 338.511 438 312.001 438 258.98 480.981 216 534 216c53.02 0 96 42.98 96 96s-42.98 96-96 96"/>
        <path stroke="#D4D6DA" stroke-width="3" d="M599 198.5C599 131.95 652.95 78 719.5 78S840 131.95 840 198.5 786.05 319 719.5 319c-43.424 0-81.975-22.566-103.183-57.017"/>
    </g>
</svg>
