<svg id="Layer_1" data-name="Layer 1" xmlns="http://www.w3.org/2000/svg" viewBox="0 0 84.05 134.01"><defs><style>.cls-1{fill:#009444;}</style></defs><title>logo</title><path class="cls-1" d="M53.52,78.37c-.52-.09-1.13-.17-1.79-.32a13.86,13.86,0,0,1-1.82-.55,26.43,26.43,0,0,1-3-1.2,30.92,30.92,0,0,1-5.79-3.36A28.74,28.74,0,0,1,32.42,62.3a41.82,41.82,0,0,1-3.64-13.21,48.4,48.4,0,0,1,.29-13.78l.78-3.47c.34-1.14.76-2.26,1.15-3.4.1-.28.19-.57.31-.84l.38-.82.77-1.63A23.94,23.94,0,0,1,34.26,22c.33-.51.65-1,1-1.53L36.37,19l1.14-1.42c.38-.47.83-.88,1.25-1.32a38.48,38.48,0,0,1,5.51-4.69,38.91,38.91,0,0,1,12.95-5.9A47.94,47.94,0,0,1,71.08,4.32,48.86,48.86,0,0,1,84.6,7a38.94,38.94,0,0,1,12,6.71A37.82,37.82,0,0,1,105.41,24a38.75,38.75,0,0,1,4.65,12.44,29.88,29.88,0,0,1,.52,3.26l.22,1.64c0,.54,0,1.09.08,1.64,0,1.09.15,2.19.11,3.28s0,2.18-.11,3.27a43,43,0,0,1-2.71,12.95c-.21.52-.4,1.05-.63,1.56l-.74,1.53-.37.76-.43.74-.88,1.47a30.38,30.38,0,0,1-4.4,5.29,32.54,32.54,0,0,1-11.8,7.24,3.12,3.12,0,0,1-4.19-2.72l0-.43-.14-2.27a3.11,3.11,0,0,1,1.88-3l.48-.21A26.47,26.47,0,0,0,91.49,70a22.8,22.8,0,0,0,3.83-3.27,23.55,23.55,0,0,0,5.14-8.42,31.77,31.77,0,0,0,1.82-10A35.35,35.35,0,0,0,101.19,38a27.32,27.32,0,0,0-4.06-8.94,26,26,0,0,0-6.92-6.67,30.27,30.27,0,0,0-8.95-4,44,44,0,0,0-10.13-1.43A43,43,0,0,0,61,18a31.93,31.93,0,0,0-9.27,3.84,28.15,28.15,0,0,0-7.38,6.59c-.47.68-1,1.31-1.47,2l-1.27,2.18-1,2.31a8.18,8.18,0,0,0-.44,1.2l-.39,1.23a10.84,10.84,0,0,0-.37,1.23l-.27,1.28a21.89,21.89,0,0,0-.46,2.59l-.3,2.64-.1,2.77.06,2.74c.08.89.12,1.81.24,2.7a30.17,30.17,0,0,0,1.05,5.27A24.28,24.28,0,0,0,44.7,68a34.12,34.12,0,0,0,8.94,6.93l.14.07a.72.72,0,0,1,.36.71A15.75,15.75,0,0,1,53.52,78.37Zm-.59-.92c-.15-.77-.37-1.31-.41-1.84l.5.78a36.62,36.62,0,0,1-5.69-2.22c-.95-.43-1.83-1-2.74-1.5-.46-.26-.86-.6-1.3-.89a15,15,0,0,1-1.27-1,28.32,28.32,0,0,1-4.53-4.56,29.72,29.72,0,0,1-3.33-5.58A35.2,35.2,0,0,1,32,54.59c-.26-1-.44-2.08-.66-3.13l-.46-3.16a42.08,42.08,0,0,1,.43-13l.36-1.64a11.74,11.74,0,0,1,.43-1.62c.36-1.06.71-2.14,1.09-3.2l1.42-3.09c.51-1,1.14-2,1.73-3A36.91,36.91,0,0,1,45.79,13,39.61,39.61,0,0,1,58,7.16,48.37,48.37,0,0,1,71.2,5.23,50.9,50.9,0,0,1,84.44,7c1.09.33,2.17.68,3.25,1s2.11.9,3.17,1.35a11.65,11.65,0,0,1,1.54.77l1.52.84a14.93,14.93,0,0,1,1.49.88l1.43,1a37.26,37.26,0,0,1,9.59,10,36.63,36.63,0,0,1,5.11,12.72,46.1,46.1,0,0,1,.76,13.26,39.78,39.78,0,0,1-3.24,13,26.39,26.39,0,0,1-1.56,3c-.3.49-.58,1-.89,1.47l-1,1.4a27.73,27.73,0,0,1-4.67,5,30.09,30.09,0,0,1-5.66,3.76,34.1,34.1,0,0,1-6.22,2.39l2.36-3.25-.14,2.27-4.21-3.15A26.34,26.34,0,0,0,97.37,70a24.66,24.66,0,0,0,4.11-4.06,25.33,25.33,0,0,0,3.06-5,34.05,34.05,0,0,0,3-11.64,40.71,40.71,0,0,0-.79-12.13,29.42,29.42,0,0,0-4.86-10.9,29.86,29.86,0,0,0-8.57-7.94,32.81,32.81,0,0,0-10.76-4.17A48.29,48.29,0,0,0,71,13.3a50.12,50.12,0,0,0-11.21,1.85c-.88.3-1.79.53-2.65.88s-1.71.68-2.57,1l-2.45,1.25c-.81.43-1.55,1-2.33,1.42A29.62,29.62,0,0,0,37.53,37.14c-.27.9-.38,1.84-.58,2.76a13.23,13.23,0,0,0-.25,1.4l-.13,1.42a43.52,43.52,0,0,0-.27,5.86A39.26,39.26,0,0,0,38,60.06a25.88,25.88,0,0,0,5.71,10,32.06,32.06,0,0,0,4.51,4c.81.63,1.68,1.18,2.55,1.76a11.22,11.22,0,0,1,1.07.74A11.07,11.07,0,0,0,52.93,77.45Z" transform="translate(-28.42 -4.28)"/><path class="cls-1" d="M54.48,78.82c-.54.23-1.12.49-1.75.71a16.28,16.28,0,0,0-1.59.67,10.57,10.57,0,0,0-1.43.71c-.46.27-.94.48-1.38.77a20.29,20.29,0,0,0-4.7,4A21.91,21.91,0,0,0,41.78,88a23.71,23.71,0,0,0-1.41,2.63c-.45.88-.73,1.85-1.09,2.77-.14.48-.26,1-.39,1.45a10,10,0,0,0-.33,1.46,40.73,40.73,0,0,0-.33,12.14,29.33,29.33,0,0,0,3.25,11,12.08,12.08,0,0,0,7.3,6c.38.08.75.21,1.14.26l1.19.15,1.22,0,1.37-.07a11.59,11.59,0,0,0,4.44-1.11,8.61,8.61,0,0,0,3.06-2.9A23.6,23.6,0,0,0,63.69,117a90,90,0,0,0,3.62-11.86l.81-3.23c.27-1.1.59-2.21.9-3.31.63-2.21,1.36-4.43,2.24-6.65a36.22,36.22,0,0,1,3.39-6.6,18.1,18.1,0,0,1,5.74-5.64A16.71,16.71,0,0,1,88,77.49a14.7,14.7,0,0,1,1.87,0,12.88,12.88,0,0,1,1.85.09c.63.07,1.25.11,1.87.22l1.85.42a19.15,19.15,0,0,1,6.66,3.45,19.66,19.66,0,0,1,4.7,5.57,26.3,26.3,0,0,1,2.75,6.51,34.77,34.77,0,0,1,1.25,6.83c.15,1.15.16,2.3.2,3.44s-.06,2.29-.07,3.43a44.8,44.8,0,0,1-.86,6.87A26.31,26.31,0,0,1,103.73,127,25.4,25.4,0,0,1,91,134,2.76,2.76,0,0,1,87.66,132a2.42,2.42,0,0,1-.07-.47l0-.31L87.46,129a2.8,2.8,0,0,1,2-2.82l.33-.1a18.06,18.06,0,0,0,9.26-6,20.7,20.7,0,0,0,3.6-10.23c.07-1,.13-1.94.16-2.92s0-2,0-3a29.92,29.92,0,0,0-.79-5.66c-.85-3.64-2.51-6.89-4.7-8.69a8.35,8.35,0,0,0-3.63-1.78c-.35,0-.7-.1-1-.16s-.75,0-1.12,0a10.24,10.24,0,0,0-1.21,0c-.45,0-.79.1-1.17.14a8.28,8.28,0,0,0-1,.22c-.31.09-.55.21-.82.29a5.3,5.3,0,0,0-1.28.88,11.17,11.17,0,0,0-2.33,3.57,58.12,58.12,0,0,0-3.27,11.39l-.64,3.18-.72,3.4c-.55,2.28-1.11,4.56-1.85,6.85-.33,1.14-.81,2.31-1.22,3.45s-1,2.32-1.48,3.47A31.15,31.15,0,0,1,70,131.35a20.24,20.24,0,0,1-7.39,5.32,23,23,0,0,1-8.42,1.61,32.91,32.91,0,0,1-4-.2,13.74,13.74,0,0,1-2.07-.34,14.55,14.55,0,0,1-2-.49,22.2,22.2,0,0,1-7.58-4,23,23,0,0,1-5.34-6.32,31.21,31.21,0,0,1-3-7.17,43.75,43.75,0,0,1-1.35-14.47,43.09,43.09,0,0,1,3-14A29.63,29.63,0,0,1,35.47,85a23.48,23.48,0,0,1,5.3-5l.74-.52.78-.45c.53-.28,1-.6,1.57-.86a27.6,27.6,0,0,1,3.29-1.28,29.53,29.53,0,0,1,6.76-1.33H54a.72.72,0,0,1,.8.65.29.29,0,0,1,0,.13A24.72,24.72,0,0,1,54.48,78.82Zm-.85-.7c-.14-.69-.29-1.27-.36-1.82l.92.77a26.38,26.38,0,0,0-10.95,6,22.26,22.26,0,0,0-5.91,10.21,43.08,43.08,0,0,0,1.17,23.8A22,22,0,0,0,41,121.9a14.56,14.56,0,0,0,3.47,3.49,13.78,13.78,0,0,0,9.22,2.12,12.84,12.84,0,0,0,4.49-1.05,9.08,9.08,0,0,0,3.13-2.54,23.56,23.56,0,0,0,2.58-4.36c.35-.89.74-1.72,1.06-2.66s.66-1.83.92-2.82.59-1.93.83-2.94l.74-3,1.34-6.41A60.06,60.06,0,0,1,73.3,87.79a22,22,0,0,1,5.36-7.12A16.49,16.49,0,0,1,83,78.06c.77-.27,1.57-.55,2.33-.74a21.8,21.8,0,0,1,2.25-.4,20.11,20.11,0,0,1,2.14-.15,16.35,16.35,0,0,1,2.09,0c.74.06,1.46.1,2.2.2s1.47.3,2.21.46a18.88,18.88,0,0,1,7.94,4.42,22.23,22.23,0,0,1,5,6.94,29.11,29.11,0,0,1,2.32,7.52,38.9,38.9,0,0,1,.59,7.5c0,1.24-.12,2.44-.2,3.66s-.33,2.44-.53,3.66l-.42,1.85-.21.91-.29.92c-.19.61-.38,1.22-.59,1.82l-.76,1.8a24.5,24.5,0,0,1-4.41,6.55,22.5,22.5,0,0,1-6.35,4.6,28.76,28.76,0,0,1-7.08,2.32L93.47,129l-.12,2.17L90,128.33a19.08,19.08,0,0,0,10.64-4.55,20.23,20.23,0,0,0,6-10.34,34.11,34.11,0,0,0,1-6.24c0-1.06.13-2.13.12-3.2s0-2.12-.15-3.16a25.45,25.45,0,0,0-3.78-11.74,13.83,13.83,0,0,0-9.34-6.36L93,82.57c-.48,0-1,0-1.44,0a9,9,0,0,0-1.45.1,8.47,8.47,0,0,0-1.44.2,10.48,10.48,0,0,0-4.8,2c-2.56,2-4,5.66-5.06,9.57-.26,1-.48,2-.72,3s-.42,2-.6,3.1-.38,2.09-.54,3.16L76.38,107a71.51,71.51,0,0,1-3.51,13.62,30.83,30.83,0,0,1-3.61,6.92,18.26,18.26,0,0,1-6.69,5.86,20.33,20.33,0,0,1-8.35,2c-.64,0-1.28,0-1.94,0l-2.08-.13c-.7-.09-1.4-.23-2.09-.35s-1.38-.36-2.07-.55A19.9,19.9,0,0,1,38.71,130a21.44,21.44,0,0,1-4.79-6.62,29,29,0,0,1-2.35-7.27c-.28-1.22-.36-2.43-.53-3.64s-.15-2.41-.19-3.61a42.77,42.77,0,0,1,2.07-14.13,13.58,13.58,0,0,1,.64-1.71c.24-.56.46-1.12.72-1.67a27,27,0,0,1,1.84-3.17,26.14,26.14,0,0,1,2.23-2.89A25,25,0,0,1,41,82.84a22.2,22.2,0,0,1,6.19-3.48,16.25,16.25,0,0,1,1.67-.54,13.72,13.72,0,0,1,1.68-.41l.84-.17.41-.07.34,0Z" transform="translate(-28.42 -4.28)"/></svg>