<svg id="Layer_1" height="35" data-name="Layer 1" xmlns="http://www.w3.org/2000/svg" viewBox="0 0 981.08 239.97"><defs><style>.cls-1{fill:#fff;}</style></defs><title>thyarles</title><path d="M309.2,228.76c-8.73-3.39-17.15.73-26,3.24-16.6,4.69-32.58,2.15-47.42-6.78-4.49-2.7-4.5-2.75-8.36.55-21.91,18.73-55.46,19-77.62.44a8,8,0,0,0-8.18-1.76,57.28,57.28,0,0,1-31.74-.32,7.41,7.41,0,0,0-6.94,1.19c-36.36,25-86.47,4.38-94.65-38.92a61.11,61.11,0,0,1,45.4-70.72c3-.75,4.49-2.06,5.15-5.22a60.79,60.79,0,0,1,75.49-46.73c5.16,1.35,10,3.92,14.91,6.21,4.12,1.94,4.33,2.09,7.32-1.45,13.18-15.55,30-23.28,50.32-22.23,21.59,1.1,38,11.55,49.4,29.89a1.07,1.07,0,0,1,.16.27c1.74,4.84,5,6.56,10.31,7,15.1,1.36,27.85,8.05,38.05,19.29a9.92,9.92,0,0,0,7.81,3.48c29.11.85,54,23.28,57.94,52,4.46,32.51-15.88,61.88-47.8,68.81C318.57,228,314.26,228.15,309.2,228.76ZM149.85,85.13c2.69-2.33,5.08-4.26,7.31-6.37,18.09-17.14,47.22-20.27,68.63-7.52A57.61,57.61,0,0,1,248.5,95.85c.56,1.15,2.07,2.53,3.22,2.61,15.47,1.07,28.38,7.52,39.19,18.39a7.62,7.62,0,0,0,5.69,2.45c13.89.37,26.75,4.32,37.83,12.72,18,13.65,26.55,31.59,22.88,54.44-.6,3.77-1.87,7.44-2.92,11.5.51-.58.8-.86,1-1.2a53.4,53.4,0,0,0-2.25-63.94c-12.87-15.68-29.69-23.23-49.73-24.27a7.28,7.28,0,0,1-4.61-1.71c-10.75-11.51-23.75-18.38-39.53-19.64a4.92,4.92,0,0,1-4.46-3.11,57.67,57.67,0,0,0-17.19-20.3c-24.94-18.69-59.36-14.95-80,9.91C154.77,77.14,152.56,81.12,149.85,85.13Zm112,86.26c11.58-22.76,6.7-55.18-20-73.74-26.24-18.22-60.74-12.61-79,7l3.4,2.58c24.28-16.58,53.12-13.53,71.65-.1C259.77,123,267.42,144.59,261.9,171.39ZM140.72,116.62c-20.17-16.81-59-20.15-85.52,8.78.75-3.07,1.34-5.47,2-8C40.6,120.81,23.27,136,19,148.44a62,62,0,0,1,34.89-21.08c-8,10.74-12.29,22.23-12.7,34.84,1.88-4.82,3.41-10,5.87-14.79a62.29,62.29,0,0,1,82.15-27.52,5,5,0,0,0,3.39.56C135.32,119.44,137.86,118,140.72,116.62ZM66.1,103.4c15.56-23,45.53-33.85,73.9-18.72l7.42-9.48C117.28,55.52,78.18,70.47,66.1,103.4Z" transform="translate(-7.18)"/><path d="M221.27,7.47c12.25,9.12,17.85,6.22,22.56-6.74,3.48,3.65,6.35,8.46,12,8.41,5.81-.06,8.47-5,11.73-9.14,2.43,4.49,4,9.8,9.57,11.08s9.38-2.87,13.52-5.79c3.28,14.7,5.57,15.89,20.95,11,.39,4.86-1.07,10.28,3.17,14s9.45,1.81,14.56,1.48c-1.12,5-3.68,9.9-.44,14.53s8.66,4.3,13.74,5c-2.22,4.52-6.17,8.67-4,14.13,2.07,5.19,7.28,6.27,11.95,7.91C340.2,86.88,340.29,87.89,352.94,97c-4.67,2.83-9.89,5.12-10.78,11.64l-11.66-5c0-6,.57-12.16-.1-18.19a71.56,71.56,0,0,0-60.84-62.57c-21.71-3.08-41,2.56-57.8,16.63a5.12,5.12,0,0,1-2.67,1.28c-7.53.46-15.06.8-22.88,1.19l-2.05-5.87c5.16.52,10.4,1.77,14.43-2.14S201,24.68,201,19.52c4.8,1.52,9.66,4.24,14.52,1.38S220.25,12.51,221.27,7.47Z" transform="translate(-7.18)"/><path d="M220,42.58c21.8-11,43-11.7,63.8-.44,22.94,12.45,34.17,32.54,35.21,58.93-4.64-.22-8.56.08-12.28-3.82-10.93-11.49-24.65-17.75-40.48-19.38-1.35-.14-3.22-.86-3.81-1.9C253,59.35,239.29,48.18,220,42.58Z" transform="translate(-7.18)"/><path d="M261.9,171.39c5.52-26.8-2.13-48.37-24-64.24-18.53-13.43-47.37-16.48-71.65.1l-3.4-2.58c18.28-19.63,52.78-25.24,79-7C268.6,116.21,273.48,148.63,261.9,171.39Z" transform="translate(-7.18)"/><path d="M140.72,116.62c-2.86,1.39-5.4,2.82-8.1,3.83a5,5,0,0,1-3.39-.56,62.29,62.29,0,0,0-82.15,27.52c-2.46,4.74-4,10-5.87,14.79.41-12.61,4.68-24.1,12.7-34.84A62,62,0,0,0,19,148.44c4.25-12.42,21.58-27.63,38.14-31-.62,2.5-1.21,4.9-2,8C81.73,96.47,120.55,99.81,140.72,116.62Z" transform="translate(-7.18)"/><path class="cls-1" d="M27.44,173.78v-4l5.68-1.67v5.64H37.9V178H33.12v9.41c0,2.61.81,3.7,2.56,3.7a8.1,8.1,0,0,0,1.87-.2l.08,4.4a11.67,11.67,0,0,1-3.85.5c-6.22,0-6.34-5.4-6.34-7.81V178H24.6v-4.24Z" transform="translate(-7.18)"/><path class="cls-1" d="M47.31,176.39a7.07,7.07,0,0,1,5.8-3.08c3.85,0,6.88,2.8,6.88,9.18v13H54.24V183c0-2.76-.86-4.9-3.35-4.9-1.44,0-3.65,1-3.65,4.24v13.15H41.48V164.17h5.76v12.22Z" transform="translate(-7.18)"/><path class="cls-1" d="M77.07,173.78h6l-4.9,15.05c-2.42,7-4.24,10.82-6.7,13.27a11.18,11.18,0,0,1-5.6,3l-1.43-4.86a11.44,11.44,0,0,0,3-1.6,7.61,7.61,0,0,0,2.88-4,3,3,0,0,0-.24-1l-7.27-19.91h6.3l3.19,11.32c.35,1.32.74,2.84,1,4h.12c.23-1.16.58-2.68.89-4Z" transform="translate(-7.18)"/><path class="cls-1" d="M85.93,175.18a15.34,15.34,0,0,1,7.51-1.83c6.73,0,8.56,4.28,8.56,9v7.93a33.24,33.24,0,0,0,.31,5.14H97.13l-.34-2.26h-.12a7,7,0,0,1-5.76,2.68,6.29,6.29,0,0,1-6.49-6.49c0-5.56,4.94-8.17,11.82-8.17,0-2.14-.74-3.77-3.89-3.77A10.63,10.63,0,0,0,87,178.91ZM96.4,184.9c-3.12,0-6.34.74-6.34,3.89a2.64,2.64,0,0,0,2.72,3A3.6,3.6,0,0,0,96.4,188Z" transform="translate(-7.18)"/><path class="cls-1" d="M112.3,177.55a6,6,0,0,1,5.37-4.24,5.8,5.8,0,0,1,1.28.12v5.48a8.82,8.82,0,0,0-1.47-.11c-2.61,0-4.59,1.75-4.59,5.44v11.21h-5.76v-14.9c0-2.69-.08-4.82-.16-6.77h4.94l.24,3.77Z" transform="translate(-7.18)"/><path class="cls-1" d="M127.9,164.17v31.28h-5.76V164.17Z" transform="translate(-7.18)"/><path class="cls-1" d="M137.39,186.34c.15,3.7,2.8,5.18,5.91,5.18a15.66,15.66,0,0,0,5.29-.9l.82,4a18.31,18.31,0,0,1-7,1.24c-6.69,0-10.5-4.2-10.5-10.93,0-6.22,3.57-11.59,9.91-11.59,5.25,0,8.68,3.74,8.68,10.74a12.9,12.9,0,0,1-.16,2.29Zm7.78-4c0-2.26-.86-5-3.7-5s-3.93,2.88-4.08,5Z" transform="translate(-7.18)"/><path class="cls-1" d="M154.27,190.23a11.42,11.42,0,0,0,5,1.44c2,0,3-.85,3-2.18s-.74-2-3.11-3c-4.05-1.63-5.53-3.93-5.53-6.3,0-3.89,3.12-6.85,7.94-6.85a11.81,11.81,0,0,1,5.37,1.21l-1.09,4a9,9,0,0,0-4.09-1.12c-1.75,0-2.68.89-2.68,2.06s.82,1.83,3.31,2.88c3.65,1.51,5.36,3.61,5.36,6.61,0,4.12-3.11,6.84-8.51,6.84a12.59,12.59,0,0,1-6.11-1.44Z" transform="translate(-7.18)"/><path class="cls-1" d="M171.34,192.18a3.48,3.48,0,0,1,3.46-3.7,3.7,3.7,0,1,1-3.46,3.7Z" transform="translate(-7.18)"/><path class="cls-1" d="M195.81,173.82h5c-.11,1.56-.19,3.46-.19,6.46v12.21c0,4.24-.39,12.1-10.93,12.1a14.78,14.78,0,0,1-6.85-1.48l1.13-4.4a12.1,12.1,0,0,0,5.6,1.4c3.23,0,5.37-1.83,5.37-6v-1.59h-.08a6.21,6.21,0,0,1-5.4,2.76c-5.14,0-8.37-4.63-8.37-10.54,0-7.16,4.17-11.4,9-11.4a6,6,0,0,1,5.45,3h.07Zm-.94,8.4c0-2.76-1.67-4.36-3.61-4.36-2.61,0-4.36,2.65-4.36,6.73,0,3.78,1.59,6.34,4.32,6.34,1.32,0,3.65-.85,3.65-4.51Z" transform="translate(-7.18)"/><path class="cls-1" d="M208.68,170.94a3.07,3.07,0,1,1,3.11-3.07A3,3,0,0,1,208.68,170.94Zm2.92,2.84v21.67h-5.76V173.78Z" transform="translate(-7.18)"/><path class="cls-1" d="M217.7,173.78v-4l5.68-1.67v5.64h4.78V178h-4.78v9.41c0,2.61.82,3.7,2.57,3.7a8.23,8.23,0,0,0,1.87-.2l.07,4.4a11.63,11.63,0,0,1-3.85.5c-6.22,0-6.34-5.4-6.34-7.81V178h-2.84v-4.24Z" transform="translate(-7.18)"/><path class="cls-1" d="M237.58,176.39a7,7,0,0,1,5.79-3.08c3.85,0,6.89,2.8,6.89,9.18v13H244.5V183c0-2.76-.86-4.9-3.34-4.9-1.44,0-3.66,1-3.66,4.24v13.15h-5.76V164.17h5.76v12.22Z" transform="translate(-7.18)"/><path class="cls-1" d="M273.67,173.78v15.05c0,2.57.12,4.79.19,6.62h-5l-.28-2.88h-.11a7.24,7.24,0,0,1-6.23,3.3c-4.12,0-6.92-2.68-6.92-9.18V173.78h5.76v12.06c0,3.27.93,5.33,3.3,5.33a3.74,3.74,0,0,0,3.54-4V173.78Z" transform="translate(-7.18)"/><path class="cls-1" d="M284.64,176.39h.07a6.83,6.83,0,0,1,6-3.08c4.79,0,8,4.44,8,10.89,0,7.86-4.4,11.67-8.87,11.67a6.27,6.27,0,0,1-5.84-3.42h-.11l-.27,3h-4.91c.08-1.56.16-4,.16-6.23V164.17h5.76Zm0,10.42c0,2.45,1.59,4.47,3.89,4.47,2.8,0,4.39-2.6,4.39-6.8,0-3.7-1.44-6.58-4.39-6.58-2,0-3.89,1.87-3.89,4.67Z" transform="translate(-7.18)"/><path class="cls-1" d="M302.41,192.18a3.48,3.48,0,0,1,3.46-3.7,3.7,3.7,0,1,1-3.46,3.7Z" transform="translate(-7.18)"/><path class="cls-1" d="M316.18,170.94a3.07,3.07,0,1,1,3.11-3.07A3,3,0,0,1,316.18,170.94Zm2.92,2.84v21.67h-5.76V173.78Z" transform="translate(-7.18)"/><path class="cls-1" d="M343.17,184.44c0,8.24-5.29,11.43-10.11,11.43-5.84,0-10-4.12-10-11.16,0-7.27,4.4-11.4,10.27-11.4C339.36,173.31,343.17,177.86,343.17,184.44Zm-10-6.89c-3.18,0-4.31,3.74-4.31,7,0,3.85,1.48,7,4.28,7s4.2-3.22,4.2-7.08C337.34,181.17,336.13,177.55,333.17,177.55Z" transform="translate(-7.18)"/><path d="M443.24,139.3a26.74,26.74,0,0,0-10.85-2.2c-11.2,0-20.2,7.67-20.2,24.08,0,15.35,7.85,23.55,20.12,23.55a30.42,30.42,0,0,0,11-1.94l1.85,10.5c-2.55,1.23-8,2.56-15,2.56-20.38,0-31.67-13.85-31.67-34,0-23.73,15.26-35.73,33.26-35.73,7.32,0,12.08,1.5,14,2.56Z" transform="translate(-7.18)"/><path d="M467.23,151.74a16,16,0,0,1,13.15-7c8.73,0,15.61,6.35,15.61,20.82V195H482.93V166.65c0-6.26-1.94-11.12-7.58-11.12-3.26,0-8.29,2.3-8.29,9.62V195H454V124h13.06v27.7Z" transform="translate(-7.18)"/><path d="M507.89,149a34.64,34.64,0,0,1,17-4.15c15.26,0,19.41,9.7,19.41,20.47v18A74,74,0,0,0,545,195H533.3l-.79-5.11h-.27c-2.82,3.88-7.59,6.08-13,6.08-9.09,0-14.74-6.79-14.74-14.73,0-12.61,11.21-18.52,26.82-18.52,0-4.85-1.67-8.56-8.82-8.56a24,24,0,0,0-12.09,3.35Zm23.73,22.05c-7,0-14.37,1.68-14.37,8.82,0,4.68,2.91,6.7,6.17,6.7a8.16,8.16,0,0,0,8.2-8.46Z" transform="translate(-7.18)"/><path d="M567.7,154.39c2.29-6.35,7.58-9.62,12.17-9.62a13.34,13.34,0,0,1,2.91.27v12.43a19.07,19.07,0,0,0-3.35-.26c-5.91,0-10.41,4-10.41,12.35V195H556V161.18c0-6.09-.18-10.94-.36-15.35h11.21l.53,8.56Z" transform="translate(-7.18)"/><path d="M603.07,124V195H590V124Z" transform="translate(-7.18)"/><path d="M624.59,174.32c.35,8.38,6.35,11.74,13.41,11.74a35.9,35.9,0,0,0,12-2l1.86,9A41.47,41.47,0,0,1,636,195.85c-15.17,0-23.82-9.53-23.82-24.79,0-14.11,8.12-26.29,22.5-26.29,11.9,0,19.67,8.47,19.67,24.35a29.5,29.5,0,0,1-.36,5.2Zm17.64-9.08c.09-5.12-1.94-11.38-8.38-11.38-6.26,0-8.91,6.53-9.26,11.38Z" transform="translate(-7.18)"/><path d="M662.87,183.14a25.82,25.82,0,0,0,11.47,3.27c4.59,0,6.79-1.94,6.79-4.94s-1.68-4.59-7.06-6.88c-9.17-3.71-12.52-8.91-12.52-14.29,0-8.82,7.05-15.53,18-15.53a26.75,26.75,0,0,1,12.18,2.74l-2.47,9.17a20.23,20.23,0,0,0-9.27-2.56c-4,0-6.08,2-6.08,4.68s1.85,4.14,7.49,6.53c8.3,3.44,12.18,8.2,12.18,15,0,9.35-7.06,15.53-19.32,15.53-5.38,0-10.59-1.33-13.85-3.27Z" transform="translate(-7.18)"/><path d="M721.79,181.12a30.52,30.52,0,0,0,14.64,3.79c7.24,0,11-3.44,11-8.47,0-4.85-3.26-7.76-10.76-11-10.23-4.41-16.58-10.76-16.58-19.58,0-11.11,8.73-19.67,23.37-19.67a32.83,32.83,0,0,1,14.56,3.09l-2.74,10.67A26.18,26.18,0,0,0,743.23,137c-6.88,0-10,3.7-10,7.5,0,4.85,3.35,7.05,11.64,10.85,10.85,4.85,15.7,11.11,15.7,20,0,11.82-8.91,20.47-24.7,20.47-6.7,0-13.49-1.86-16.67-3.8Z" transform="translate(-7.18)"/><path d="M770.13,149a34.56,34.56,0,0,1,17-4.15c15.26,0,19.41,9.7,19.41,20.47v18a74,74,0,0,0,.7,11.64H795.53l-.79-5.11h-.27c-2.82,3.88-7.58,6.08-13.05,6.08-9.09,0-14.73-6.79-14.73-14.73,0-12.61,11.2-18.52,26.81-18.52,0-4.85-1.67-8.56-8.82-8.56a23.91,23.91,0,0,0-12.08,3.35Zm23.73,22.05c-7.06,0-14.38,1.68-14.38,8.82,0,4.68,2.91,6.7,6.17,6.7a8.17,8.17,0,0,0,8.21-8.46Z" transform="translate(-7.18)"/><path d="M830,152.53a16.55,16.55,0,0,1,14.2-7.67c9,0,16,6.26,16,20V195H847.13V166.3c0-6-1.94-10.77-7.5-10.77-3.52,0-8.38,2.74-8.38,10.24V195h-13V160.65c0-5.73-.18-10.41-.35-14.73h11.29l.61,6.61Z" transform="translate(-7.18)"/><path d="M873.94,145.83v-9L886.82,133v12.79h10.85v9.62H886.82v21.34c0,5.91,1.86,8.38,5.82,8.38a18.59,18.59,0,0,0,4.24-.44l.18,10a26.26,26.26,0,0,1-8.74,1.15c-14.11,0-14.38-12.27-14.38-17.73V155.45H867.5v-9.62Z" transform="translate(-7.18)"/><path d="M948.66,170c0,18.7-12,25.93-22.94,25.93-13.23,0-22.76-9.35-22.76-25.31,0-16.5,10-25.85,23.29-25.85C940,144.77,948.66,155.09,948.66,170ZM926,154.39c-7.24,0-9.8,8.47-9.8,16,0,8.74,3.36,16,9.71,16,6.17,0,9.52-7.32,9.52-16.06C935.42,162.59,932.69,154.39,926,154.39Z" transform="translate(-7.18)"/><path d="M957.56,183.14A25.82,25.82,0,0,0,969,186.41c4.59,0,6.79-1.94,6.79-4.94s-1.67-4.59-7.05-6.88c-9.18-3.71-12.53-8.91-12.53-14.29,0-8.82,7.06-15.53,18-15.53a26.75,26.75,0,0,1,12.18,2.74l-2.47,9.17a20.23,20.23,0,0,0-9.26-2.56c-4,0-6.09,2-6.09,4.68s1.85,4.14,7.5,6.53c8.29,3.44,12.17,8.2,12.17,15,0,9.35-7.06,15.53-19.32,15.53-5.38,0-10.58-1.33-13.85-3.27Z" transform="translate(-7.18)"/></svg>